<?xml version="1.0" encoding="UTF-8" standalone="no"?><svg xmlns="http://www.w3.org/2000/svg" xmlns:xlink="http://www.w3.org/1999/xlink" fill="#000000" height="500" preserveAspectRatio="xMidYMid meet" version="1" viewBox="0.0 0.0 500.0 500.0" width="500" zoomAndPan="magnify"><g id="change1_1"><path d="M250,0C111.9,0,0,111.9,0,250s111.9,250,250,250s250-111.9,250-250S388.1,0,250,0z M370.7,358.2h-86.3v-91 c0-5.1-4.1-9.2-9.2-9.2h-46.6c-5.1,0-9.2,4.1-9.2,9.2v91h-86.2c-4.9,0-8.9-4-8.9-8.9V198.4c0-2.8,1.3-5.4,3.5-7.1l118.9-89.6 c3.2-2.4,7.5-2.4,10.7,0l118.9,89.6c2.2,1.7,3.5,4.3,3.5,7.1l0,150.6C379.9,354.1,375.8,358.2,370.7,358.2z" fill="#004aad"/></g></svg>