<?xml version="1.0" encoding="UTF-8" standalone="no"?><svg xmlns="http://www.w3.org/2000/svg" xmlns:xlink="http://www.w3.org/1999/xlink" fill="#000000" height="248.3" preserveAspectRatio="xMidYMid meet" version="1" viewBox="130.8 117.7 256.3 248.3" width="256.3" zoomAndPan="magnify"><g fill="#004aad" id="change1_1"><path d="M 288.4375 346.730469 L 288.480469 346.730469 Z M 160.617188 205.511719 C 159.132812 205.511719 157.730469 206.179688 156.226562 207.496094 C 155.988281 207.71875 153.207031 210.359375 151.730469 211.765625 L 150.796875 212.648438 C 143.050781 219.890625 139.546875 232.941406 141.863281 245.910156 C 142.617188 250.128906 143.828125 254.5 145.46875 258.902344 C 153.761719 281.179688 169.527344 300.570312 181.296875 312.914062 C 193.007812 325.339844 211.527344 342.121094 233.332031 351.601562 C 237.636719 353.472656 241.9375 354.914062 246.113281 355.894531 C 258.9375 358.898438 272.160156 356.105469 279.792969 348.765625 L 280.816406 347.792969 C 282.28125 346.40625 284.890625 343.941406 285.277344 343.566406 C 289.753906 338.953125 287.371094 334.980469 277.984375 325.429688 L 275.550781 322.929688 C 269.472656 316.628906 259.304688 306.027344 250.851562 307.074219 C 248.632812 307.335938 246.214844 309.023438 243.65625 310.808594 C 241.140625 312.566406 238.289062 314.558594 234.96875 315.609375 C 226.109375 318.40625 217.113281 316.570312 209.65625 310.425781 C 205.273438 306.8125 200.8125 302.585938 196.757812 298.207031 C 192.671875 293.996094 188.691406 289.316406 185.316406 284.75 C 179.578125 276.96875 178.21875 267.890625 181.496094 259.1875 C 182.722656 255.933594 184.863281 253.191406 186.753906 250.773438 C 188.671875 248.3125 190.484375 245.992188 190.867188 243.789062 C 192.316406 235.402344 182.320312 224.675781 176.347656 218.269531 L 173.988281 215.714844 C 167.726562 208.859375 163.957031 205.511719 160.617188 205.511719 Z M 256.480469 366.015625 C 252.078125 366.015625 247.84375 365.484375 244.070312 364.601562 C 239.378906 363.5 234.5625 361.886719 229.765625 359.800781 C 206.570312 349.71875 187.074219 332.085938 174.808594 319.066406 C 162.480469 306.136719 145.914062 285.722656 137.089844 262.023438 C 135.265625 257.117188 133.90625 252.226562 133.0625 247.480469 C 130.804688 234.847656 132.671875 217.347656 144.683594 206.128906 L 145.570312 205.28125 C 147.171875 203.761719 150.230469 200.859375 150.347656 200.757812 C 162.59375 190 173.425781 201.84375 180.589844 209.679688 L 182.890625 212.171875 C 189.992188 219.796875 201.886719 232.550781 199.679688 245.3125 C 198.914062 249.730469 196.195312 253.207031 193.800781 256.277344 C 192.160156 258.378906 190.609375 260.359375 189.863281 262.34375 C 187.660156 268.191406 188.578125 274.105469 192.511719 279.4375 C 195.652344 283.6875 199.363281 288.054688 203.246094 292.058594 C 207.105469 296.222656 211.265625 300.164062 215.34375 303.523438 C 220.460938 307.738281 226.320312 308.96875 232.273438 307.085938 C 234.289062 306.445312 236.355469 305.003906 238.539062 303.476562 C 241.734375 301.246094 245.351562 298.722656 249.800781 298.195312 C 262.664062 296.675781 274.757812 309.226562 281.988281 316.722656 L 284.363281 319.160156 C 291.804688 326.734375 303.050781 338.175781 291.636719 349.855469 C 291.632812 349.859375 291.628906 349.863281 291.625 349.867188 C 291.519531 349.972656 288.574219 352.765625 286.964844 354.289062 L 285.976562 355.222656 C 277.714844 363.164062 266.652344 366.015625 256.480469 366.015625" fill="inherit"/><path d="M 263.191406 147.714844 C 260.722656 147.714844 258.722656 145.714844 258.722656 143.242188 L 258.722656 122.195312 C 258.722656 119.726562 260.722656 117.726562 263.191406 117.726562 C 265.660156 117.726562 267.664062 119.726562 267.664062 122.195312 L 267.664062 143.242188 C 267.664062 145.714844 265.660156 147.714844 263.191406 147.714844" fill="inherit"/><path d="M 244.582031 151.285156 C 242.515625 151.285156 240.660156 149.847656 240.214844 147.746094 L 235.835938 127.15625 C 235.324219 124.742188 236.863281 122.367188 239.277344 121.855469 C 241.691406 121.332031 244.070312 122.882812 244.582031 125.296875 L 248.960938 145.886719 C 249.472656 148.300781 247.929688 150.675781 245.515625 151.1875 C 245.203125 151.253906 244.890625 151.285156 244.582031 151.285156" fill="inherit"/><path d="M 227.132812 158.652344 C 225.421875 158.652344 223.785156 157.660156 223.046875 155.996094 L 214.480469 136.769531 C 213.480469 134.515625 214.492188 131.871094 216.75 130.867188 C 219.011719 129.867188 221.648438 130.878906 222.652344 133.132812 L 231.214844 152.359375 C 232.21875 154.613281 231.203125 157.257812 228.945312 158.261719 C 228.355469 158.523438 227.738281 158.652344 227.132812 158.652344" fill="inherit"/><path d="M 211.589844 169.480469 C 210.203125 169.480469 208.84375 168.84375 207.96875 167.640625 L 195.59375 150.609375 C 194.140625 148.609375 194.585938 145.816406 196.582031 144.363281 C 198.585938 142.910156 201.375 143.359375 202.828125 145.351562 L 215.199219 162.382812 C 216.652344 164.378906 216.210938 167.175781 214.210938 168.628906 C 213.417969 169.203125 212.496094 169.480469 211.589844 169.480469" fill="inherit"/><path d="M 198.628906 183.308594 C 197.5625 183.308594 196.492188 182.929688 195.640625 182.160156 L 179.996094 168.074219 C 178.160156 166.421875 178.015625 163.597656 179.664062 161.761719 C 181.316406 159.929688 184.144531 159.78125 185.980469 161.429688 L 201.621094 175.515625 C 203.457031 177.167969 203.605469 179.992188 201.953125 181.828125 C 201.070312 182.808594 199.851562 183.308594 198.628906 183.308594" fill="inherit"/><path d="M 323.203125 336.613281 C 321.492188 336.613281 319.859375 335.625 319.117188 333.960938 L 310.554688 314.730469 C 309.550781 312.476562 310.566406 309.832031 312.820312 308.828125 C 315.082031 307.828125 317.71875 308.839844 318.722656 311.09375 L 327.285156 330.320312 C 328.289062 332.578125 327.273438 335.222656 325.019531 336.226562 C 324.425781 336.488281 323.808594 336.613281 323.203125 336.613281" fill="inherit"/><path d="M 342.558594 323.582031 C 341.175781 323.582031 339.8125 322.941406 338.9375 321.738281 L 326.566406 304.710938 C 325.113281 302.710938 325.558594 299.914062 327.554688 298.464844 C 329.558594 297.011719 332.351562 297.460938 333.800781 299.453125 L 346.171875 316.480469 C 347.625 318.480469 347.179688 321.273438 345.183594 322.726562 C 344.390625 323.304688 343.46875 323.582031 342.558594 323.582031" fill="inherit"/><path d="M 358.777344 306.808594 C 357.710938 306.808594 356.640625 306.429688 355.789062 305.660156 L 340.144531 291.574219 C 338.3125 289.925781 338.160156 287.097656 339.816406 285.261719 C 341.464844 283.433594 344.296875 283.28125 346.128906 284.929688 L 361.769531 299.015625 C 363.605469 300.667969 363.753906 303.496094 362.101562 305.328125 C 361.21875 306.308594 360 306.808594 358.777344 306.808594" fill="inherit"/><path d="M 371.15625 287.03125 C 370.398438 287.03125 369.632812 286.839844 368.925781 286.433594 L 350.695312 275.910156 C 348.558594 274.671875 347.828125 271.941406 349.0625 269.800781 C 350.292969 267.660156 353.019531 266.929688 355.167969 268.164062 L 373.394531 278.6875 C 375.535156 279.921875 376.265625 282.65625 375.03125 284.796875 C 374.203125 286.230469 372.703125 287.03125 371.15625 287.03125" fill="inherit"/><path d="M 379.160156 265.113281 C 378.703125 265.113281 378.238281 265.042969 377.777344 264.894531 L 357.761719 258.386719 C 355.410156 257.625 354.128906 255.101562 354.890625 252.753906 C 355.648438 250.410156 358.175781 249.125 360.523438 249.882812 L 380.542969 256.390625 C 382.894531 257.152344 384.175781 259.675781 383.414062 262.023438 C 382.800781 263.910156 381.046875 265.113281 379.160156 265.113281" fill="inherit"/><path d="M 382.433594 242.007812 C 382.277344 242.007812 382.117188 241.996094 381.960938 241.980469 L 361.027344 239.78125 C 358.570312 239.523438 356.789062 237.324219 357.046875 234.867188 C 357.304688 232.410156 359.503906 230.648438 361.960938 230.890625 L 382.894531 233.089844 C 385.351562 233.347656 387.132812 235.546875 386.875 238.003906 C 386.632812 240.300781 384.691406 242.007812 382.433594 242.007812" fill="inherit"/><path d="M 359.882812 220.929688 C 357.625 220.929688 355.683594 219.222656 355.441406 216.925781 C 355.183594 214.46875 356.964844 212.269531 359.421875 212.011719 L 380.355469 209.808594 C 382.824219 209.566406 385.007812 211.335938 385.269531 213.789062 C 385.523438 216.246094 383.742188 218.445312 381.289062 218.703125 L 360.355469 220.902344 C 360.195312 220.917969 360.039062 220.929688 359.882812 220.929688" fill="inherit"/><path d="M 354.390625 202.800781 C 352.503906 202.800781 350.753906 201.597656 350.136719 199.710938 C 349.375 197.359375 350.65625 194.839844 353.007812 194.074219 L 373.023438 187.570312 C 375.378906 186.8125 377.894531 188.097656 378.660156 190.441406 C 379.421875 192.789062 378.136719 195.3125 375.789062 196.074219 L 355.769531 202.578125 C 355.3125 202.730469 354.84375 202.800781 354.390625 202.800781" fill="inherit"/><path d="M 345.246094 186.203125 C 343.699219 186.203125 342.199219 185.402344 341.367188 183.96875 C 340.136719 181.828125 340.867188 179.097656 343.007812 177.859375 L 361.234375 167.339844 C 363.371094 166.101562 366.105469 166.839844 367.34375 168.976562 C 368.574219 171.113281 367.84375 173.847656 365.703125 175.082031 L 347.476562 185.605469 C 346.773438 186.011719 346.003906 186.203125 345.246094 186.203125" fill="inherit"/><path d="M 332.847656 171.878906 C 331.621094 171.878906 330.402344 171.378906 329.523438 170.398438 C 327.871094 168.5625 328.019531 165.738281 329.855469 164.085938 L 345.496094 150 C 347.332031 148.347656 350.15625 148.492188 351.808594 150.332031 C 353.460938 152.164062 353.3125 154.992188 351.476562 156.644531 L 335.835938 170.730469 C 334.980469 171.496094 333.910156 171.878906 332.847656 171.878906" fill="inherit"/><path d="M 317.734375 160.4375 C 316.824219 160.4375 315.90625 160.160156 315.113281 159.585938 C 313.113281 158.132812 312.671875 155.339844 314.121094 153.339844 L 326.492188 136.3125 C 327.945312 134.320312 330.738281 133.871094 332.738281 135.324219 C 334.738281 136.773438 335.179688 139.570312 333.730469 141.570312 L 321.355469 158.597656 C 320.480469 159.800781 319.121094 160.4375 317.734375 160.4375" fill="inherit"/><path d="M 300.585938 152.394531 C 299.976562 152.394531 299.359375 152.269531 298.769531 152.007812 C 296.515625 151.003906 295.496094 148.359375 296.503906 146.105469 L 305.0625 126.875 C 306.070312 124.617188 308.710938 123.609375 310.96875 124.609375 C 313.222656 125.613281 314.238281 128.257812 313.230469 130.511719 L 304.671875 149.738281 C 303.929688 151.40625 302.296875 152.394531 300.585938 152.394531" fill="inherit"/><path d="M 282.140625 148.089844 C 281.832031 148.089844 281.519531 148.058594 281.207031 147.988281 C 278.792969 147.476562 277.25 145.105469 277.765625 142.6875 L 282.136719 122.101562 C 282.652344 119.683594 285.027344 118.132812 287.441406 118.65625 C 289.855469 119.171875 291.394531 121.542969 290.882812 123.960938 L 286.507812 144.546875 C 286.0625 146.648438 284.203125 148.089844 282.140625 148.089844" fill="inherit"/><path d="M 216.785156 256.019531 C 216.765625 254.71875 216.742188 253.625 216.722656 252.734375 C 216.703125 251.84375 216.691406 250.894531 216.691406 249.890625 C 216.691406 248.882812 216.703125 247.542969 216.722656 245.867188 C 216.828125 242.40625 217.667969 239.484375 219.238281 237.097656 C 220.8125 234.710938 223.125 232.6875 226.183594 231.03125 L 230.363281 228.769531 C 231.832031 227.972656 232.769531 227.011719 233.179688 225.890625 C 233.585938 224.769531 233.820312 223.71875 233.886719 222.734375 C 233.96875 221.601562 234.015625 220.375 234.027344 219.054688 C 234.035156 217.734375 234.011719 216.5 233.945312 215.347656 C 233.800781 213.082031 232.28125 211.953125 229.390625 211.953125 C 227.925781 211.953125 226.863281 212.246094 226.21875 212.832031 C 225.566406 213.421875 225.222656 214.183594 225.179688 215.128906 C 225.136719 216.761719 225.105469 218.28125 225.085938 219.683594 C 225.0625 221.089844 225.105469 222.617188 225.210938 224.273438 L 216.847656 224.273438 C 216.785156 222.867188 216.738281 221.546875 216.707031 220.296875 C 216.675781 219.050781 216.683594 217.882812 216.722656 216.792969 C 216.890625 212.621094 217.964844 209.636719 219.945312 207.832031 C 221.925781 206.03125 225.074219 205.132812 229.390625 205.132812 C 233.960938 205.132812 237.222656 206.03125 239.183594 207.832031 C 241.140625 209.636719 242.203125 212.621094 242.371094 216.792969 C 242.453125 218.886719 242.453125 220.867188 242.371094 222.734375 C 242.246094 226.085938 241.386719 228.785156 239.796875 230.824219 C 238.199219 232.871094 236.128906 234.59375 233.570312 235.996094 L 228.824219 238.574219 C 227.484375 239.308594 226.558594 240.402344 226.042969 241.859375 C 225.527344 243.316406 225.273438 244.652344 225.273438 245.867188 L 225.273438 248.695312 L 241.773438 248.695312 L 241.773438 256.019531 L 216.785156 256.019531" fill="inherit"/><path d="M 252.839844 235.523438 L 259.941406 235.523438 L 261.042969 223.519531 L 262.015625 213.050781 L 260.257812 213.050781 L 256.988281 223.519531 Z M 259.941406 256.019531 L 259.941406 242.785156 L 244.730469 242.785156 L 244.730469 235.902344 L 256.609375 205.726562 L 267.863281 205.726562 L 267.863281 235.523438 L 273.394531 235.523438 L 273.394531 242.785156 L 267.863281 242.785156 L 267.863281 256.019531 L 259.941406 256.019531" fill="inherit"/><path d="M 306.554688 256.019531 L 320.980469 213.050781 L 303.003906 213.050781 L 303.003906 205.726562 L 329.402344 205.726562 L 329.402344 213.238281 L 315.324219 256.019531 L 306.554688 256.019531" fill="inherit"/><path d="M 284.597656 261.65625 L 299.824219 202 L 291.652344 202 L 276.421875 261.65625 L 284.597656 261.65625" fill="inherit"/></g></svg>